<svg width="80.000000" height="70.000000" viewBox="0 0 80 70" fill="none" xmlns="http://www.w3.org/2000/svg" xmlns:xlink="http://www.w3.org/1999/xlink">
	<desc>
			Created with Pixso.
	</desc>
	<defs/>
	<path id="Vector" d="M79.98 34.69L79.98 34.67C79.99 34.64 80 34.61 80 34.59C80 34.56 79.99 34.53 79.98 34.5C79.98 34.5 79.98 34.49 79.98 34.48C79.98 34.46 79.97 34.44 79.96 34.43C79.96 34.42 79.96 34.41 79.96 34.41L60.13 0.16L60.13 0.15C60.12 0.13 60.1 0.11 60.09 0.1C60.08 0.09 60.08 0.08 60.07 0.08C60.05 0.06 60.03 0.04 60.01 0.03C59.98 0.02 59.95 0 59.92 0C59.91 0 59.9 0 59.89 0C59.87 -0.01 59.85 -0.01 59.83 0L20.15 0C20.13 -0.01 20.11 -0.01 20.09 0C20.08 0 20.07 0 20.07 0C20.04 0 20.01 0.02 19.99 0.03C19.96 0.04 19.94 0.06 19.92 0.08C19.92 0.09 19.91 0.09 19.91 0.1C19.89 0.11 19.88 0.13 19.87 0.15L19.87 0.16L0.03 34.41C0.03 34.41 0.03 34.42 0.03 34.43C0.02 34.44 0.01 34.46 0.01 34.48C0.01 34.48 0.01 34.5 0.01 34.5C0 34.53 0 34.56 0 34.59C0 34.61 0 34.64 0.01 34.67L0.01 34.69C0.01 34.71 0.02 34.73 0.03 34.75C0.03 34.75 0.03 34.76 0.03 34.76L19.86 69.02L19.86 69.03C19.87 69.05 19.88 69.06 19.9 69.08L19.91 69.1C19.93 69.11 19.96 69.13 19.98 69.15C20.01 69.16 20.03 69.17 20.06 69.18C20.09 69.19 20.12 69.19 20.15 69.19L59.81 69.19C59.84 69.19 59.87 69.19 59.9 69.18C59.93 69.17 59.96 69.16 59.98 69.15C60.01 69.13 60.03 69.11 60.05 69.1L60.06 69.08C60.08 69.06 60.09 69.05 60.1 69.03L60.1 69.02L79.96 34.76C79.96 34.76 79.96 34.75 79.96 34.75C79.97 34.73 79.98 34.71 79.98 34.69ZM59.82 68.14L40.61 34.94L79.03 34.94L59.82 68.14ZM20.17 1.04L39.38 34.24L0.95 34.24L20.17 1.04ZM40 33.88L20.78 0.69L59.21 0.69L40 33.88ZM40 35.29L59.21 68.49L20.78 68.49L40 35.29ZM40.61 34.24L41.64 32.45C41.65 32.47 41.65 32.49 41.66 32.51C41.71 32.61 41.78 32.66 41.9 32.66C42.01 32.66 42.09 32.61 42.13 32.51C42.14 32.48 42.15 32.44 42.15 32.41C42.15 32.36 42.13 32.31 42.11 32.27C42.06 32.19 41.99 32.16 41.9 32.16C41.86 32.16 41.83 32.16 41.8 32.18L44.44 27.61C44.46 27.61 44.47 27.61 44.48 27.61C44.54 27.59 44.59 27.56 44.62 27.52C44.66 27.47 44.68 27.42 44.68 27.36C44.68 27.32 44.67 27.28 44.65 27.25L48.12 21.26C48.16 21.27 48.2 21.28 48.23 21.28C48.31 21.28 48.37 21.26 48.41 21.21C48.46 21.16 48.49 21.1 48.49 21.03C48.49 20.94 48.45 20.87 48.38 20.82L51.83 14.84C51.88 14.91 51.95 14.95 52.04 14.95C52.11 14.95 52.17 14.92 52.21 14.88C52.26 14.83 52.28 14.77 52.29 14.71C52.29 14.64 52.27 14.58 52.23 14.53C52.18 14.48 52.13 14.45 52.06 14.45L54.74 9.83C54.79 9.79 54.82 9.73 54.83 9.66L55.6 8.33C55.6 8.34 55.6 8.35 55.6 8.36C55.6 8.43 55.63 8.49 55.68 8.54C55.73 8.59 55.78 8.61 55.86 8.61C55.93 8.61 55.98 8.59 56.03 8.54C56.08 8.49 56.11 8.43 56.11 8.36C56.11 8.29 56.08 8.23 56.03 8.18C55.98 8.13 55.93 8.11 55.86 8.11C55.8 8.11 55.75 8.13 55.7 8.16L58.37 3.55L58.39 3.55C58.5 3.55 58.57 3.5 58.62 3.41C58.67 3.32 58.66 3.23 58.6 3.15L59.82 1.04L60.99 3.05C60.97 3.05 60.95 3.05 60.93 3.05C60.86 3.05 60.81 3.07 60.76 3.11C60.71 3.16 60.68 3.21 60.67 3.28C60.67 3.34 60.68 3.4 60.72 3.45C60.76 3.51 60.81 3.54 60.88 3.55C60.94 3.56 61 3.55 61.06 3.52C61.11 3.48 61.15 3.44 61.17 3.37L64.66 9.39L64.64 9.39C64.53 9.44 64.48 9.52 64.48 9.63C64.48 9.74 64.53 9.82 64.64 9.86C64.67 9.87 64.7 9.88 64.74 9.88C64.79 9.88 64.83 9.86 64.88 9.84C64.89 9.84 64.89 9.82 64.9 9.81L68.36 15.79C68.28 15.87 68.27 15.96 68.31 16.06C68.36 16.17 68.43 16.22 68.54 16.22C68.56 16.22 68.58 16.22 68.6 16.22L72.1 22.27C72.09 22.31 72.1 22.36 72.12 22.4C72.14 22.46 72.19 22.51 72.26 22.53L74.9 27.11L74.88 27.11C74.85 27.11 74.82 27.12 74.78 27.14C74.68 27.18 74.63 27.26 74.63 27.37C74.63 27.48 74.68 27.56 74.78 27.6C74.82 27.61 74.85 27.62 74.88 27.62C74.93 27.62 74.98 27.61 75.02 27.58C75.06 27.55 75.09 27.52 75.11 27.48L78.58 33.47C78.46 33.53 78.41 33.63 78.44 33.76C78.47 33.89 78.56 33.95 78.69 33.95C78.74 33.95 78.79 33.94 78.83 33.91L79.03 34.26L40.61 34.24Z" fill="#191919" fill-opacity="1.000000" fill-rule="nonzero"/>
</svg>
