<svg width="132.000000" height="35.000000" viewBox="0 0 132 35" fill="none" xmlns="http://www.w3.org/2000/svg" xmlns:xlink="http://www.w3.org/1999/xlink">
	<desc>
			Created with Pixso.
	</desc>
	<defs/>
	<rect id="Button" rx="6.000000" width="132.000000" height="35.000000" transform="translate(0.000000 -0.500000)" fill="#191919" fill-opacity="1.000000"/>
	<path id="Button" d="M51.39 11.08L51.39 12.16Q51.39 12.5 51.31 12.89Q51.22 13.27 51.06 13.63Q50.98 13.8 50.89 13.96Q50.79 14.16 50.66 14.34Q50.49 14.58 50.29 14.78Q50.21 14.86 50.12 14.94L49.38 14.42Q49.72 13.9 49.89 13.35Q50.06 12.81 50.06 12.18L50.06 11.08L51.39 11.08ZM62.67 20.56Q62.86 20.24 62.86 19.8Q62.86 19.31 62.63 18.97Q62.58 18.9 62.53 18.83Q62.33 18.58 62.06 18.4Q61.71 18.17 61.29 18.02Q60.86 17.87 60.48 17.74Q59.91 17.56 59.33 17.3Q58.75 17.04 58.27 16.67Q57.93 16.41 57.67 16.07Q57.57 15.94 57.48 15.79Q57.48 15.79 57.48 15.78Q57.18 15.27 57.18 14.59Q57.18 13.98 57.42 13.49Q57.45 13.42 57.48 13.36Q57.65 13.07 57.87 12.82Q58.06 12.62 58.28 12.45Q58.3 12.43 58.33 12.41Q58.8 12.06 59.39 11.88Q59.94 11.71 60.49 11.69Q60.57 11.68 60.64 11.68Q61.09 11.68 61.51 11.78Q61.75 11.83 61.98 11.92Q62.57 12.13 63.04 12.49Q63.08 12.53 63.13 12.56Q63.31 12.71 63.46 12.89Q63.73 13.19 63.93 13.57Q63.94 13.59 63.94 13.61Q64.23 14.19 64.24 14.9L62.85 14.9Q62.79 14.44 62.62 14.06Q62.47 13.71 62.22 13.46Q62.2 13.43 62.18 13.41Q62.14 13.38 62.1 13.35Q61.85 13.12 61.51 12.99Q61.13 12.84 60.64 12.84Q60.42 12.84 60.21 12.88Q60.04 12.9 59.89 12.95Q59.52 13.06 59.23 13.28L59.23 13.28Q59.08 13.39 58.96 13.53Q58.85 13.67 58.77 13.82Q58.59 14.15 58.59 14.57Q58.6 15 58.8 15.31Q58.81 15.33 58.83 15.35Q58.86 15.39 58.89 15.43Q59.1 15.7 59.41 15.89Q59.75 16.11 60.16 16.25Q60.56 16.4 60.92 16.51Q61.52 16.69 62.11 16.95Q62.56 17.15 62.96 17.44Q63.08 17.52 63.19 17.62Q63.4 17.78 63.58 17.97Q63.8 18.23 63.97 18.53Q64.27 19.07 64.27 19.79Q64.27 20.48 63.97 21.01Q63.96 21.02 63.95 21.04Q63.77 21.34 63.53 21.58Q63.35 21.77 63.13 21.92Q62.62 22.28 61.98 22.46Q61.35 22.64 60.71 22.64Q60.49 22.64 60.26 22.62Q59.73 22.57 59.21 22.39Q58.51 22.14 57.99 21.69Q57.96 21.67 57.93 21.65Q57.64 21.39 57.41 21.07Q57.28 20.88 57.17 20.67Q57.16 20.66 57.16 20.65Q56.89 20.1 56.87 19.42L58.25 19.42Q58.32 19.92 58.52 20.3Q58.68 20.61 58.92 20.83Q58.98 20.89 59.05 20.95Q59.1 21 59.16 21.04Q59.44 21.24 59.79 21.36Q60.21 21.49 60.71 21.49Q60.88 21.49 61.06 21.47Q61.27 21.45 61.49 21.39Q61.87 21.29 62.18 21.08Q62.29 21 62.39 20.9Q62.55 20.75 62.67 20.56ZM18.8 11.83L18.8 21.35L24.02 21.35L24.02 22.5L17.45 22.5L17.45 11.83L18.8 11.83ZM33.14 16.42L33.14 17.57L28.68 17.57L28.68 21.35L33.88 21.35L33.88 22.5L27.33 22.5L27.33 11.83L33.81 11.83L33.81 12.99L28.68 12.99L28.68 16.42L33.14 16.42ZM44.46 11.83L44.46 12.99L41.17 12.99L41.17 22.5L39.85 22.5L39.85 12.99L36.55 12.99L36.55 11.83L44.46 11.83ZM84.47 11.83L84.47 12.99L81.17 12.99L81.17 22.5L79.86 22.5L79.86 12.99L76.56 12.99L76.56 11.83L84.47 11.83ZM93.21 22.5L92.37 19.73L88.81 19.73L87.95 22.5L86.6 22.5L90.04 11.83L91.18 11.83L94.56 22.5L93.21 22.5ZM98.81 11.83L98.81 21.35L104.03 21.35L104.03 22.5L97.46 22.5L97.46 11.83L98.81 11.83ZM113.06 22.5L109.84 17.54L108.65 18.89L108.65 22.5L107.27 22.5L107.27 11.83L108.65 11.83L108.65 17.04L109.69 15.75L112.81 11.83L114.46 11.83L110.73 16.5L114.71 22.5L113.06 22.5ZM90.6 13.93L89.18 18.55L92.01 18.55L90.6 13.93Z" fill="#FDFBF5" fill-opacity="1.000000" fill-rule="evenodd"/>
</svg>
