<svg width="74.000000" height="15.000000" viewBox="0 0 74 15" fill="none" xmlns="http://www.w3.org/2000/svg" xmlns:xlink="http://www.w3.org/1999/xlink">
	<desc>
			Created with Pixso.
	</desc>
	<defs/>
	<path id="Fylla" d="M12.31 -0.81L12.31 1.25L2.3 1.25L2.3 6.1L10.48 6.1L10.48 8.12L2.3 8.12L2.3 14.77L0 14.77L0 -0.81L12.31 -0.81ZM27.67 -0.81L21.74 9.56L21.74 14.77L19.44 14.77L19.44 9.56L13.51 -0.81L16.15 -0.81L20.63 7.28L25.03 -0.81L27.67 -0.81ZM32.42 12.7L32.42 -0.81L30.11 -0.81L30.11 14.77L41.58 14.77L41.58 12.7L32.42 12.7ZM46.97 -0.81L46.97 12.7L56.14 12.7L56.14 14.77L44.67 14.77L44.67 -0.81L46.97 -0.81ZM64.14 -0.81L57.78 14.77L60.25 14.77L61.78 10.9L68.97 10.9L70.5 14.77L73 14.77L66.59 -0.81L64.14 -0.81ZM68.15 8.84L65.37 1.8L62.59 8.84L68.15 8.84Z" fill="#191919" fill-opacity="1.000000" fill-rule="evenodd"/>
</svg>
